<?xml version="1.0" standalone="no"?>
<!DOCTYPE svg PUBLIC "-//W3C//DTD SVG 20010904//EN"
 "http://www.w3.org/TR/2001/REC-SVG-20010904/DTD/svg10.dtd">
<svg version="1.0" xmlns="http://www.w3.org/2000/svg"
 width="1000.000000pt" height="483.000000pt" viewBox="0 0 1000.000000 483.000000"
 preserveAspectRatio="xMidYMid meet">
<metadata>
Created by potrace 1.16, written by Peter Selinger 2001-2019
</metadata>
<g transform="translate(0.000000,483.000000) scale(0.100000,-0.100000)"
fill="#000000" stroke="none">
<path d="M5193 4452 c-180 -207 -334 -385 -341 -394 -12 -15 -6 -26 42 -84 31
-37 56 -71 56 -74 0 -3 -28 -20 -62 -38 -91 -46 -120 -64 -165 -100 l-40 -31
-293 260 -293 259 -29 -52 c-16 -29 -59 -111 -96 -182 l-67 -129 -3 172 c-1
94 -4 171 -5 171 -9 0 -910 -290 -915 -294 -6 -6 16 -488 23 -494 2 -3 33 3
69 12 36 9 69 16 74 16 5 0 12 -33 16 -72 4 -40 9 -94 13 -119 l5 -46 -73 25
c-66 23 -90 26 -214 27 -163 0 -234 -17 -371 -89 l-81 -43 5 112 c8 177 -31
307 -132 449 -106 148 -304 284 -482 330 -88 23 -283 46 -382 46 -323 -1 -711
-106 -1042 -282 -75 -40 -300 -177 -319 -194 -4 -3 -2 -6 262 -448 l189 -315
76 36 c42 19 82 37 87 39 6 2 55 -96 109 -219 169 -379 596 -1329 624 -1389
l27 -56 260 82 c143 46 297 94 343 107 58 16 82 27 82 38 0 9 -25 108 -56 221
-83 311 -125 469 -139 530 -7 30 -20 78 -28 107 l-15 52 74 61 74 61 0 -73 c1
-406 345 -703 750 -648 159 21 323 93 432 189 l46 41 6 -27 c3 -16 10 -80 17
-143 6 -63 12 -116 14 -118 2 -2 113 12 247 32 133 20 268 38 298 41 30 3 65
8 78 10 l22 5 0 290 0 289 193 -93 c105 -51 408 -201 672 -332 263 -132 483
-240 487 -242 4 -2 8 143 8 322 l0 325 38 6 c155 25 302 70 426 131 38 19 72
32 74 29 3 -2 -7 -77 -21 -167 -15 -89 -26 -163 -24 -164 3 -3 646 -106 693
-111 l40 -5 13 96 c25 182 15 182 114 -1 48 -89 87 -167 87 -172 0 -28 20 -2
70 93 30 58 56 104 57 102 1 -1 11 -78 22 -171 11 -93 24 -172 28 -176 5 -3
157 -32 338 -64 182 -31 355 -63 385 -71 30 -8 66 -14 81 -14 l26 0 -23 128
c-13 70 -23 132 -24 139 0 7 13 9 39 6 59 -8 194 14 289 47 48 16 88 28 90 26
3 -4 -13 -179 -24 -247 l-5 -36 274 -37 275 -38 8 -116 9 -115 110 -34 c61
-19 188 -59 283 -90 121 -39 176 -53 181 -45 16 26 744 2242 739 2248 -12 11
-773 193 -780 186 -3 -4 -20 -67 -36 -141 -17 -73 -33 -135 -35 -137 -2 -2 -9
26 -15 64 -36 205 -47 245 -67 253 -20 9 -877 199 -896 199 -11 0 -12 -185 -3
-382 l7 -135 63 -13 64 -12 0 -43 0 -44 -58 24 c-73 30 -196 55 -264 55 -123
-1 -314 -56 -401 -116 -21 -14 -41 -23 -44 -20 -3 3 -36 196 -73 428 l-66 423
-311 3 -311 2 -7 -50 -7 -50 -321 -2 -321 -3 -12 -75 c-61 -386 -55 -362 -76
-343 -10 9 -28 32 -39 50 -34 55 -157 151 -254 199 -100 49 -185 73 -289 83
l-69 6 179 95 c98 53 219 116 267 140 63 32 86 49 84 61 -6 24 -367 559 -377
559 -5 0 -157 -170 -337 -378z m344 76 c17 -24 58 -81 92 -127 34 -47 60 -88
59 -92 -3 -9 -544 -279 -558 -279 -5 0 -16 12 -23 28 -14 27 -13 29 187 270
110 133 203 242 206 242 4 0 20 -19 37 -42z m1717 -585 c6 -38 21 -132 71
-458 14 -93 31 -207 38 -251 l13 -81 -43 -58 c-129 -171 -186 -392 -149 -585
33 -178 154 -349 302 -427 59 -32 61 -34 68 -79 3 -26 5 -49 3 -51 -5 -4 -408
58 -432 67 -19 7 -25 38 -69 331 -26 178 -54 358 -61 399 -12 73 -13 74 -24
45 -7 -16 -44 -113 -83 -215 -39 -102 -72 -187 -74 -189 -2 -2 -24 38 -48 90
-60 130 -120 258 -168 362 -44 94 -51 96 -62 12 -30 -229 -90 -565 -100 -562
-6 3 -99 19 -206 37 -107 18 -198 35 -202 39 -3 3 7 85 24 181 l29 175 95 95
94 95 -65 58 c-50 45 -65 64 -65 85 1 15 31 207 68 427 l67 400 216 3 217 2
20 -107 c11 -60 35 -190 53 -291 24 -130 36 -177 41 -160 7 22 27 132 83 458
14 80 28 155 30 168 5 22 8 22 159 22 l153 0 7 -37z m-3540 -48 c7 -82 13
-180 22 -362 4 -73 10 -130 14 -128 5 3 90 121 191 262 101 142 191 268 200
280 l17 23 196 -186 c108 -102 196 -189 196 -193 0 -4 -124 -137 -275 -296
-151 -160 -275 -292 -275 -295 0 -3 118 -51 263 -108 243 -96 265 -106 281
-136 56 -105 169 -206 308 -276 86 -43 120 -54 276 -86 22 -4 22 -6 22 -189
l0 -185 -670 335 -670 335 0 -354 0 -354 -97 -11 c-54 -7 -122 -16 -152 -22
-94 -16 -97 -15 -100 35 -1 24 -6 88 -10 142 -8 94 -7 101 17 149 136 270 114
566 -58 784 -48 60 -44 44 -65 296 -8 105 -18 224 -21 265 -4 41 -7 76 -8 77
-1 1 -34 -8 -74 -19 -41 -11 -75 -18 -77 -16 -2 2 -5 34 -7 73 l-3 70 275 81
c151 45 276 81 277 80 1 -1 4 -33 7 -71z m-2034 -11 c174 -28 299 -91 420
-213 155 -156 199 -324 140 -537 -62 -228 -244 -454 -517 -644 l-21 -15 113
-435 c63 -239 113 -435 112 -437 -12 -12 -360 -114 -366 -107 -5 5 -44 90 -89
189 -163 367 -654 1461 -663 1477 -9 16 -18 14 -99 -27 -49 -25 -92 -45 -94
-45 -2 0 -15 19 -29 43 -23 41 -104 178 -200 340 l-46 77 47 30 c81 51 302
156 418 198 132 49 277 87 399 106 114 18 364 18 475 0z m3833 -108 c116 -27
234 -94 315 -178 l33 -35 -281 -299 c-310 -331 -304 -320 -159 -290 98 21 168
56 239 123 70 64 42 76 228 -92 l123 -110 -48 -43 c-69 -61 -200 -147 -276
-182 -70 -32 -242 -83 -317 -96 -25 -4 -88 -6 -140 -6 -311 3 -547 183 -606
462 -19 90 -12 211 16 303 100 322 506 528 873 443z m3117 -63 c157 -31 286
-57 288 -59 4 -2 43 -184 131 -609 34 -159 64 -301 67 -315 l6 -25 8 25 c5 14
36 142 70 285 89 372 127 526 134 532 5 5 435 -84 444 -92 3 -2 -626 -1912
-634 -1926 -3 -5 -276 71 -311 85 -5 3 -14 231 -20 536 -3 195 -7 380 -8 410
-2 30 -3 93 -5 140 -1 47 -4 78 -6 70 -2 -8 -15 -82 -29 -165 -14 -82 -32
-184 -40 -225 -7 -41 -20 -113 -28 -160 -63 -352 -58 -330 -81 -330 -11 0 -88
11 -171 25 -82 14 -151 25 -153 25 -2 0 -1 3 1 8 3 4 8 52 11 107 4 55 10 109
13 120 3 11 34 50 68 86 279 297 307 707 66 982 -30 33 -33 42 -27 80 3 23 8
74 11 112 3 39 8 86 11 106 l5 36 -66 18 -66 18 2 71 c2 72 4 86 17 86 4 0
135 -25 292 -57z m-2634 -405 l-21 -127 -53 47 c-28 26 -52 51 -52 57 0 9 142
157 146 152 1 -1 -8 -59 -20 -129z m2112 -43 c184 -44 308 -174 348 -365 61
-294 -184 -642 -511 -725 -119 -30 -265 -15 -370 37 -147 74 -245 240 -245
415 0 390 409 725 778 638z m-3665 -166 l5 -107 -62 24 c-124 49 -120 34 -30
125 43 44 80 76 81 72 1 -5 3 -56 6 -114z m-1419 37 c136 -32 258 -121 318
-232 132 -244 40 -587 -209 -785 -255 -203 -573 -209 -769 -14 -104 103 -150
230 -142 389 22 395 435 727 802 642z"/>
<path d="M1587 3409 c-32 -5 -78 -17 -103 -29 -42 -18 -46 -22 -40 -47 14 -58
180 -608 185 -615 10 -12 135 77 196 138 31 31 69 85 87 122 29 58 32 75 32
147 0 71 -4 91 -30 141 -54 110 -177 163 -327 143z m153 -154 c84 -43 92 -169
17 -266 -17 -23 -37 -44 -43 -46 -13 -4 -108 312 -98 328 9 15 84 5 124 -16z"/>
<path d="M5170 3561 c-92 -29 -187 -116 -215 -199 -29 -88 -19 -203 23 -272
19 -31 84 -100 94 -100 10 0 412 458 416 474 4 17 -81 76 -135 92 -49 15 -142
17 -183 5z m148 -120 c-4 -12 -200 -241 -226 -264 -20 -19 -21 -18 -32 24 -26
96 27 201 121 238 31 12 142 14 137 2z"/>
<path d="M7810 3143 c-68 -24 -145 -106 -165 -178 -28 -95 -7 -181 64 -258
140 -152 406 -114 492 70 29 62 34 121 15 186 -17 60 -35 84 -29 39 6 -42 -36
-113 -82 -139 -79 -45 -196 -22 -248 48 -26 36 -33 108 -14 145 23 43 60 74
108 89 l44 14 -70 0 c-38 -1 -90 -8 -115 -16z"/>
<path d="M2803 3010 c-138 -28 -246 -166 -228 -292 19 -130 109 -223 239 -247
229 -43 425 179 332 374 l-24 50 -1 -45 c-2 -90 -70 -152 -169 -154 -107 -2
-182 62 -182 155 0 59 31 107 89 136 24 12 46 25 49 28 8 7 -55 4 -105 -5z"/>
<path d="M5777 1756 c-51 -19 -72 -40 -102 -100 -28 -59 -45 -170 -45 -292 0
-84 0 -84 -24 -78 -35 8 -109 -28 -151 -73 l-34 -37 -35 39 c-35 39 -35 42
-36 130 0 101 -27 178 -71 206 -41 27 -118 31 -164 8 -77 -36 -106 -107 -104
-249 0 -52 0 -99 0 -105 -1 -5 -13 7 -27 26 -35 50 -89 73 -154 67 -55 -6
-181 -63 -221 -100 -55 -53 -56 -53 -78 -11 -23 46 -55 63 -120 63 -58 0 -114
-33 -187 -111 -161 -172 -252 -403 -213 -542 14 -50 71 -113 117 -128 78 -27
202 -13 315 35 37 15 40 15 68 -7 39 -28 163 -36 237 -14 36 10 55 11 68 4 30
-17 135 -13 171 6 31 16 34 16 79 -8 59 -31 129 -33 184 -5 21 11 41 24 44 29
3 5 24 2 48 -6 55 -19 169 -12 257 16 l65 20 37 -34 c59 -53 165 -60 228 -15
l29 20 39 -22 c74 -44 186 -23 236 43 25 34 56 237 57 372 0 170 -48 310 -120
348 -38 21 -113 25 -156 9 -15 -6 -29 -8 -32 -5 -3 3 2 79 11 168 10 101 13
175 8 197 -16 69 -43 109 -86 130 -48 23 -85 25 -138 6z m105 -113 c25 -30 27
-59 12 -191 -7 -70 -14 -191 -14 -269 l0 -143 43 47 c44 49 105 82 148 83 35
0 76 -34 95 -78 41 -94 20 -463 -28 -505 -27 -23 -80 -22 -103 3 -17 18 -17
25 -1 124 16 106 20 250 7 296 -11 41 -44 37 -84 -11 -72 -84 -82 -117 -82
-279 l0 -145 -46 -3 c-29 -2 -50 2 -57 11 -20 23 -34 323 -30 652 3 281 5 325
21 360 10 22 25 46 34 53 24 17 67 15 85 -5z m-646 -198 c15 -22 16 -45 11
-160 -5 -131 -5 -134 14 -125 45 24 86 -39 58 -89 -8 -14 -28 -30 -45 -35
l-31 -9 -5 -213 c-4 -151 -9 -218 -18 -229 -16 -20 -93 -20 -110 0 -9 11 -10
63 -5 221 l8 207 -30 -6 c-37 -7 -53 7 -53 49 0 36 22 64 49 64 37 0 44 25 38
128 -10 154 13 222 74 222 20 0 34 -8 45 -25z m-345 -265 c72 -39 120 -311 88
-498 -13 -73 -35 -102 -78 -102 -44 0 -61 10 -61 35 l0 24 -57 -30 c-70 -36
-177 -49 -207 -26 -22 16 -24 72 -5 110 24 45 83 109 180 193 56 50 99 95 99
105 0 38 -22 69 -50 69 -28 0 -83 -36 -107 -69 -19 -28 -49 -26 -69 4 -33 51
-3 93 114 157 68 38 117 47 153 28z m730 -10 c14 -8 19 -21 19 -56 0 -60 -11
-78 -64 -104 -55 -26 -98 -88 -126 -178 -32 -104 -24 -152 25 -152 28 1 101
35 137 65 35 30 84 31 102 3 19 -30 -12 -66 -92 -105 -62 -31 -86 -37 -156
-41 -100 -5 -140 11 -163 65 -21 52 -2 143 55 257 35 70 63 108 127 173 82 83
99 92 136 73z m-1177 -36 c36 -36 7 -123 -49 -150 -50 -24 -99 -93 -129 -186
-38 -113 -34 -148 15 -148 37 0 116 40 148 74 28 30 81 35 102 10 48 -58 -182
-183 -318 -172 -46 4 -61 10 -81 33 -22 26 -24 36 -20 94 9 123 80 260 199
383 78 80 103 92 133 62z"/>
<path d="M4798 816 c-84 -69 -128 -139 -94 -152 25 -10 58 2 103 37 37 29 43
38 49 85 3 29 4 58 2 64 -2 7 -27 -7 -60 -34z"/>
<path d="M6592 1585 c-36 -30 -162 -280 -169 -335 -7 -50 27 -123 68 -147 23
-14 29 -23 24 -38 -4 -11 -16 -56 -28 -100 -12 -44 -30 -91 -40 -105 -41 -58
-44 -133 -7 -195 10 -16 23 -48 30 -70 30 -98 90 -160 173 -179 40 -9 119 16
200 63 65 38 67 39 67 17 0 -32 39 -86 77 -109 44 -25 129 -33 173 -15 33 14
38 13 79 -9 52 -27 140 -31 184 -8 25 13 30 12 63 -10 63 -43 156 -45 221 -5
57 35 61 53 65 306 3 195 0 237 -14 285 -20 64 -51 114 -90 142 -34 25 -129
34 -193 18 -41 -10 -48 -9 -75 11 -38 28 -139 37 -189 16 -31 -12 -39 -12 -70
4 -50 26 -109 23 -153 -7 l-36 -24 -53 52 c-30 29 -69 59 -87 66 -18 8 -31 19
-28 25 60 136 68 181 41 257 -28 78 -83 119 -159 119 -33 0 -52 -6 -74 -25z
m119 -104 c38 -39 38 -82 0 -164 -33 -69 -43 -82 -85 -115 -34 -26 -59 -28
-80 -6 -26 25 -19 52 41 174 79 161 76 158 124 111z m77 -382 c69 -39 112
-104 112 -170 0 -64 -20 -86 -130 -139 l-92 -45 5 -44 c6 -51 26 -76 55 -67
11 4 50 34 88 67 56 49 73 59 99 57 26 -3 30 -8 33 -34 3 -26 -4 -37 -37 -65
-42 -37 -169 -112 -220 -132 -26 -10 -37 -9 -59 3 -38 22 -70 74 -78 128 -4
28 -14 52 -25 60 -11 7 -19 24 -19 37 0 23 23 55 40 55 4 0 11 26 15 57 9 77
37 162 69 218 23 39 31 45 59 45 18 0 56 -14 85 -31z m324 -86 c9 -10 19 -33
23 -52 l7 -34 25 32 c29 37 91 71 129 71 19 0 40 -13 69 -44 l42 -43 42 25
c50 29 137 36 166 12 10 -8 28 -35 39 -60 20 -42 21 -59 18 -254 -2 -116 -8
-218 -13 -228 -14 -26 -92 -25 -119 2 -17 17 -20 29 -15 68 37 324 34 382 -20
382 -13 0 -40 -14 -60 -31 l-35 -31 0 -168 c0 -93 -3 -176 -6 -185 -10 -26
-51 -37 -94 -25 -21 6 -40 16 -43 23 -2 6 2 87 11 178 15 170 13 221 -12 255
-14 19 -15 19 -43 -2 -77 -57 -96 -129 -80 -297 12 -134 11 -137 -55 -137 -68
0 -74 16 -82 191 -3 85 -9 190 -12 234 -5 72 -4 83 16 108 25 32 78 37 102 10z"/>
<path d="M3144 1342 c-50 -24 -81 -62 -96 -119 l-11 -44 -17 28 c-27 44 -58
72 -86 79 -48 12 -114 -2 -152 -33 -62 -50 -76 -85 -82 -197 -4 -78 -9 -101
-22 -110 -13 -8 -22 -6 -38 9 -17 15 -40 20 -114 23 -125 6 -147 -6 -226 -114
l-62 -83 -41 5 c-36 5 -56 -2 -137 -41 -52 -26 -130 -62 -172 -80 l-77 -33 36
57 c20 31 42 66 50 77 7 12 26 24 42 27 41 8 88 52 102 94 15 45 4 155 -18
191 -34 55 -73 82 -120 82 -54 0 -92 -19 -156 -79 -103 -95 -301 -437 -363
-626 -31 -94 -42 -229 -25 -293 16 -56 71 -116 127 -138 100 -38 258 7 420
121 36 25 68 45 71 45 4 0 19 -12 34 -26 52 -50 156 -44 218 11 36 33 40 34
77 23 98 -27 243 18 340 105 l51 46 12 -25 c14 -32 83 -64 136 -63 69 1 123
29 165 86 l23 32 33 -29 c56 -49 150 -52 224 -7 27 17 52 22 115 22 55 1 96 8
133 23 40 15 60 18 79 11 55 -21 136 -3 187 41 51 45 68 121 68 294 0 199 -34
320 -112 404 -37 40 -67 52 -128 52 -49 0 -122 -29 -189 -74 -64 -44 -73 -38
-72 48 1 80 -15 127 -56 166 -34 32 -115 38 -171 12z m114 -104 c8 -8 12 -51
12 -127 l0 -116 37 0 38 0 0 -45 c0 -42 -2 -46 -37 -62 l-38 -18 -1 -118 c0
-64 -4 -159 -7 -210 -8 -108 -20 -125 -87 -120 l-40 3 2 205 2 205 -42 0 c-36
0 -42 3 -45 23 -5 33 22 69 58 77 l30 7 0 119 c0 121 11 170 42 182 24 10 64
7 76 -5z m-330 -70 c8 -8 12 -49 12 -120 l0 -108 25 6 c70 17 76 -90 7 -114
-27 -9 -29 -14 -35 -78 -4 -38 -7 -129 -7 -203 0 -124 -2 -136 -22 -158 -25
-27 -88 -32 -107 -9 -12 14 -10 159 4 333 l5 62 -42 -2 c-34 -2 -43 2 -46 16
-8 39 7 65 49 81 l42 17 -7 92 c-6 97 2 147 30 178 19 21 74 25 92 7z m767
-111 c49 -49 67 -118 72 -278 8 -223 -15 -284 -104 -277 -30 2 -39 7 -41 25
l-3 22 -38 -23 c-78 -49 -200 -73 -229 -44 -20 20 -13 71 17 123 27 47 197
221 250 257 21 15 22 19 11 53 -7 20 -18 39 -26 42 -23 9 -68 -15 -110 -58
-21 -21 -46 -39 -56 -39 -24 0 -51 44 -43 69 14 45 189 160 244 161 13 0 37
-14 56 -33z m-1776 -6 c10 -6 16 -32 19 -74 4 -58 2 -66 -17 -77 -12 -6 -26
-8 -32 -4 -16 10 -89 -73 -142 -163 -114 -191 -184 -425 -147 -494 31 -56 181
22 359 187 91 84 95 101 11 53 -72 -42 -105 -46 -124 -16 -14 22 9 66 44 84
81 42 285 133 297 133 16 0 17 -47 2 -121 -6 -30 -14 -110 -18 -179 -6 -122
-6 -125 -33 -140 -21 -11 -32 -12 -45 -4 -15 9 -18 26 -18 101 l0 90 -75 -69
c-170 -159 -363 -261 -460 -242 -69 14 -102 102 -80 210 46 223 282 640 405
716 34 21 35 21 54 9z m696 -201 c22 -13 44 -41 61 -76 24 -49 26 -63 22 -137
-4 -64 -11 -94 -32 -135 -62 -121 -177 -202 -287 -202 -50 0 -63 4 -91 29 -83
74 -38 291 99 474 26 36 55 67 63 70 37 10 132 -3 165 -23z"/>
<path d="M3572 715 c-65 -59 -92 -99 -92 -135 0 -38 50 -20 128 47 31 27 33
31 30 86 l-3 59 -63 -57z"/>
<path d="M2482 747 c-32 -34 -73 -131 -85 -200 -20 -116 14 -182 72 -140 34
26 68 77 81 122 21 77 6 193 -30 226 -15 13 -19 13 -38 -8z"/>
<path d="M8372 1209 c-49 -32 -74 -90 -80 -181 -2 -43 -6 -78 -7 -78 -1 0 -20
7 -41 16 -75 31 -276 -6 -335 -62 -39 -37 -53 -107 -34 -170 8 -28 24 -59 35
-69 l20 -18 -23 -26 c-69 -75 -111 -178 -100 -244 14 -91 106 -150 239 -152
63 -1 88 -5 110 -20 22 -16 48 -20 110 -21 68 -1 87 -5 120 -27 51 -34 117
-50 166 -42 29 5 44 3 56 -9 32 -28 90 -46 151 -46 50 0 65 4 92 27 48 41 56
69 47 165 -21 216 -34 557 -25 644 13 122 5 160 -44 206 -45 43 -105 63 -165
54 -35 -4 -45 -1 -64 19 -54 57 -165 74 -228 34z m157 -114 l25 -24 -13 -108
c-12 -112 -5 -335 20 -595 13 -132 9 -148 -43 -148 -35 0 -83 23 -91 44 -8 20
-32 537 -32 676 0 115 6 150 32 175 22 22 70 13 102 -20z m228 -69 l27 -24
-11 -98 c-10 -94 0 -373 23 -639 6 -68 4 -83 -10 -94 -22 -18 -82 -6 -110 22
-21 21 -23 36 -37 322 -18 385 -17 476 5 509 22 35 74 35 113 2z m-507 -194
c67 -66 102 -247 82 -413 -14 -115 -31 -143 -79 -136 -46 8 -63 23 -63 58 l0
29 -27 -17 c-20 -14 -47 -18 -109 -18 -97 0 -137 20 -142 73 -7 71 62 148 214
234 72 41 75 44 70 72 -10 47 -25 59 -72 53 -23 -2 -56 -14 -73 -26 -25 -18
-34 -20 -51 -11 -31 17 -44 58 -26 85 18 28 102 53 180 54 55 1 61 -1 96 -37z"/>
<path d="M8132 541 c-65 -42 -85 -69 -80 -104 4 -31 43 -34 99 -5 40 19 48 29
53 58 8 51 7 90 -2 90 -5 0 -36 -18 -70 -39z"/>
<path d="M9092 1054 c-18 -10 -45 -33 -60 -52 l-27 -35 -7 -306 c-4 -168 -5
-318 -2 -334 4 -21 -1 -35 -25 -62 -68 -78 -59 -179 22 -233 38 -25 48 -27
148 -27 93 0 111 3 135 21 77 57 89 129 35 215 -25 40 -28 54 -21 76 5 16 16
114 25 218 8 105 20 234 26 288 10 86 9 103 -6 143 -25 65 -72 97 -149 101
-43 3 -71 -1 -94 -13z m139 -93 c27 -22 29 -43 11 -223 -6 -71 -17 -185 -23
-255 -12 -138 -18 -158 -50 -168 -25 -8 -75 11 -84 33 -3 9 -3 144 1 301 7
279 8 286 30 308 29 29 83 31 115 4z m-25 -743 c49 -47 51 -87 4 -111 -41 -21
-118 -17 -156 8 -37 24 -32 66 11 104 49 43 93 42 141 -1z"/>
</g>
</svg>
