<?xml version="1.0" standalone="no"?>
<!DOCTYPE svg PUBLIC "-//W3C//DTD SVG 20010904//EN"
 "http://www.w3.org/TR/2001/REC-SVG-20010904/DTD/svg10.dtd">
<svg version="1.0" xmlns="http://www.w3.org/2000/svg"
 width="36.000000pt" height="36.000000pt" viewBox="0 0 36.000000 36.000000"
 preserveAspectRatio="xMidYMid meet">

<g transform="translate(0.000000,36.000000) scale(0.100000,-0.100000)"
fill="#000000" stroke="none">
<path d="M240 294 c-11 -13 -9 -19 13 -41 22 -22 28 -24 41 -13 21 17 20 33
-2 53 -23 21 -36 21 -52 1z"/>
<path d="M127 182 c-58 -59 -77 -84 -77 -105 0 -23 4 -27 28 -27 21 0 46 18
107 80 l79 79 -24 26 c-13 14 -26 25 -29 25 -4 0 -41 -35 -84 -78z"/>
</g>
</svg>
