<?xml version="1.0" standalone="no"?>
<!DOCTYPE svg PUBLIC "-//W3C//DTD SVG 20010904//EN"
 "http://www.w3.org/TR/2001/REC-SVG-20010904/DTD/svg10.dtd">
<svg version="1.0" xmlns="http://www.w3.org/2000/svg"
 width="512.000000pt" height="512.000000pt" viewBox="0 0 512.000000 512.000000"
 preserveAspectRatio="xMidYMid meet">

<g transform="translate(0.000000,512.000000) scale(0.100000,-0.100000)"
fill="#000000" stroke="none">
<path d="M1576 3827 c-21 -15 -24 -60 -6 -82 6 -8 26 -17 44 -20 70 -14 125
39 92 90 -14 21 -24 25 -64 25 -27 0 -56 -6 -66 -13z"/>
<path d="M4727 3822 c-18 -20 -22 -49 -9 -69 20 -32 105 -38 140 -11 17 14 15
63 -4 82 -23 23 -106 21 -127 -2z"/>
<path d="M715 3823 c-225 -26 -345 -57 -474 -120 -153 -74 -241 -179 -241
-288 0 -58 29 -134 66 -170 80 -80 175 -103 481 -115 268 -11 320 -20 613
-110 107 -33 227 -65 266 -71 168 -27 258 30 284 180 11 57 10 84 -3 161 -58
343 -372 544 -842 538 -66 0 -133 -3 -150 -5z m413 -139 c265 -51 427 -203
462 -432 13 -87 -3 -160 -40 -180 -29 -15 -106 -9 -185 13 l-50 15 3 77 c5 94
-10 166 -51 253 -40 86 -147 192 -242 243 l-70 37 50 -6 c28 -3 83 -12 123
-20z"/>
<path d="M3820 3820 c-249 -31 -461 -110 -569 -213 -24 -24 -56 -69 -72 -104
l-29 -63 -164 0 c-178 0 -196 -5 -196 -55 0 -50 17 -55 206 -55 173 0 175 0
183 -23 15 -38 61 -87 103 -108 86 -44 182 -59 425 -69 253 -10 320 -21 528
-85 293 -91 318 -97 405 -98 106 -2 151 18 194 86 23 38 29 60 33 131 7 110
-9 191 -57 291 -83 174 -250 291 -490 346 -99 23 -380 33 -500 19z m463 -136
c102 -19 171 -46 243 -93 151 -98 234 -255 222 -421 -4 -53 -9 -67 -32 -87
-32 -28 -71 -29 -170 -5 l-69 17 -2 100 c-4 218 -110 384 -308 483 l-62 31 50
-5 c28 -3 85 -12 128 -20z"/>
<path d="M1702 3674 c-30 -20 -30 -68 0 -88 51 -36 138 -8 138 44 0 52 -87 80
-138 44z"/>
<path d="M4855 3676 c-11 -8 -18 -26 -18 -46 0 -42 24 -60 78 -60 67 0 101 63
57 103 -23 21 -91 22 -117 3z"/>
<path d="M1788 3519 c-29 -17 -40 -46 -27 -71 17 -32 28 -38 75 -38 45 0 69
14 79 47 14 50 -74 93 -127 62z"/>
<path d="M4950 3523 c-40 -14 -53 -69 -22 -96 26 -24 104 -23 125 1 24 26 21
68 -5 86 -22 16 -68 20 -98 9z"/>
<path d="M2126 3424 c-37 -37 -3 -98 50 -92 18 2 34 13 43 29 13 24 13 29 -2
53 -20 30 -66 35 -91 10z"/>
<path d="M2336 3424 c-36 -35 -9 -94 43 -94 34 0 54 21 54 55 0 14 -6 32 -13
40 -16 20 -64 19 -84 -1z"/>
<path d="M2542 3428 c-17 -17 -15 -64 4 -82 18 -19 65 -21 82 -4 7 7 12 26 12
43 0 17 -5 36 -12 43 -7 7 -26 12 -43 12 -17 0 -36 -5 -43 -12z"/>
<path d="M1817 3322 c-42 -46 -10 -92 63 -92 54 0 80 18 80 55 0 37 -26 55
-79 55 -34 0 -53 -5 -64 -18z"/>
<path d="M4978 3329 c-21 -12 -24 -69 -6 -87 7 -7 36 -12 65 -12 46 0 55 3 70
26 15 24 15 29 2 53 -12 22 -22 26 -64 28 -28 2 -58 -2 -67 -8z"/>
<path d="M1820 3130 c-46 -46 -10 -100 66 -100 47 0 74 23 74 63 0 53 -98 79
-140 37z"/>
<path d="M4983 3135 c-28 -20 -30 -65 -5 -88 27 -24 97 -22 122 3 42 42 16 90
-51 97 -31 3 -51 -1 -66 -12z"/>
<path d="M2950 2161 c-41 -10 -149 -41 -240 -69 -255 -80 -318 -91 -583 -102
-253 -10 -351 -27 -434 -76 -53 -31 -100 -100 -109 -160 l-6 -44 -154 0 c-141
0 -156 -2 -174 -20 -24 -24 -25 -49 -6 -76 13 -17 31 -19 189 -24 l175 -5 41
-47 c132 -150 448 -248 799 -248 448 0 746 177 827 491 24 91 17 238 -13 296
-48 93 -156 122 -312 84z m168 -107 c35 -10 52 -54 52 -132 0 -217 -146 -396
-380 -466 -47 -14 -224 -46 -255 -46 -5 0 24 17 65 38 191 95 308 292 298 500
l-3 73 50 14 c84 24 134 29 173 19z"/>
<path d="M3397 2072 c-42 -46 -6 -102 65 -102 68 0 105 70 56 104 -31 22 -101
21 -121 -2z"/>
<path d="M3396 1874 c-9 -8 -16 -26 -16 -39 0 -37 26 -55 79 -55 34 0 53 5 64
18 21 23 22 56 1 76 -21 21 -107 21 -128 0z"/>
<path d="M582 1703 c-24 -10 -34 -53 -18 -79 21 -31 52 -39 81 -20 60 40 5
126 -63 99z"/>
<path d="M780 1690 c-39 -39 -16 -93 40 -93 35 0 60 23 60 55 0 24 -35 58 -60
58 -11 0 -29 -9 -40 -20z"/>
<path d="M987 1692 c-36 -40 -11 -95 43 -95 56 0 79 54 40 93 -25 25 -62 26
-83 2z"/>
<path d="M3350 1690 c-44 -44 -6 -100 67 -100 63 0 97 65 55 103 -27 24 -97
22 -122 -3z"/>
<path d="M3277 1532 c-22 -24 -21 -65 1 -85 44 -40 142 -9 142 43 0 54 -105
84 -143 42z"/>
<path d="M3172 1390 c-35 -15 -48 -54 -28 -85 14 -21 24 -25 62 -25 63 0 84
13 84 54 0 19 -6 39 -14 45 -20 17 -77 23 -104 11z"/>
</g>
</svg>
