<?xml version="1.0" standalone="no"?>
<!DOCTYPE svg PUBLIC "-//W3C//DTD SVG 20010904//EN"
 "http://www.w3.org/TR/2001/REC-SVG-20010904/DTD/svg10.dtd">
<svg version="1.0" xmlns="http://www.w3.org/2000/svg"
 width="794.000000pt" height="635.000000pt" viewBox="0 0 794.000000 635.000000"
 preserveAspectRatio="xMidYMid meet">

<g transform="translate(0.000000,635.000000) scale(0.100000,-0.100000)"
fill="#000000" stroke="none">
<path d="M6515 5994 c-457 -112 -1362 -458 -1850 -707 -334 -170 -664 -378
-665 -418 0 -8 22 -47 50 -86 27 -39 50 -73 50 -75 0 -1 -84 -1 -186 0 -258 5
-428 -23 -637 -104 -51 -19 -101 -38 -112 -40 -13 -4 -56 17 -125 60 -532 334
-1224 538 -1735 512 -219 -11 -233 -20 -168 -108 189 -258 514 -494 906 -657
202 -84 579 -191 672 -191 31 0 31 -4 1 -71 -54 -124 -83 -275 -95 -505 -8
-156 -9 -162 -61 -314 -50 -145 -53 -161 -54 -255 -1 -78 4 -116 22 -172 23
-75 98 -196 151 -247 17 -17 31 -35 31 -41 0 -7 -27 -63 -59 -126 -71 -139
-115 -271 -144 -443 l-22 -128 -61 -22 c-34 -13 -85 -39 -112 -60 -80 -59
-169 -186 -202 -291 -7 -22 -15 -44 -17 -48 -3 -4 -29 15 -60 43 -65 60 -100
80 -139 79 -16 -1 -48 2 -71 6 -39 7 -43 6 -52 -17 -5 -13 -16 -30 -25 -37
-61 -50 44 -315 235 -597 88 -128 263 -338 331 -397 98 -84 194 -116 251 -85
32 17 307 19 307 2 0 -20 29 -44 52 -44 12 0 30 -8 40 -17 16 -15 25 -15 64
-5 38 10 48 10 69 -4 24 -15 29 -15 71 1 41 16 47 16 63 1 23 -21 53 -20 99 3
20 10 52 22 70 26 22 4 37 16 48 37 l16 30 176 -6 c351 -12 377 -15 387 -39 6
-13 20 -22 34 -23 15 -1 36 -15 54 -38 32 -40 46 -43 82 -20 22 14 26 14 55
-2 25 -15 35 -16 60 -7 25 9 38 9 65 -3 45 -19 51 -18 77 8 16 16 32 21 60 19
33 -2 41 2 55 27 l17 29 222 -2 c185 -3 227 -6 246 -19 32 -22 101 -20 151 5
61 31 157 110 233 192 194 209 484 673 484 775 0 32 -15 58 -65 115 -32 37
-142 1 -237 -77 -31 -25 -59 -43 -61 -39 -3 5 -8 24 -12 43 -4 19 -23 68 -42
109 -57 120 -176 224 -314 276 l-47 17 -5 86 c-3 57 -1 93 7 104 6 9 63 59
127 112 117 95 137 119 121 140 -5 6 -70 88 -145 182 -76 94 -137 176 -137
181 0 26 66 127 103 156 23 18 161 126 307 239 276 214 310 243 310 258 0 9
-410 769 -451 836 -30 50 -25 59 43 78 165 46 531 210 743 333 92 53 106 58
174 63 81 5 78 3 95 80 4 18 35 47 103 97 124 90 231 184 279 246 33 43 36 50
22 63 -19 19 -153 43 -245 44 -39 0 -74 3 -76 8 -3 4 10 99 29 212 42 256 82
538 86 610 3 55 3 55 -27 57 -16 1 -57 -5 -90 -13z m75 -51 c-1 -61 -118 -805
-128 -814 -4 -4 -60 -12 -125 -18 -435 -43 -953 -196 -1327 -393 -63 -34 -162
-93 -218 -131 l-104 -70 -51 22 c-121 53 -260 101 -365 127 l-113 28 -59 85
c-42 62 -56 89 -48 98 5 7 60 46 121 87 441 295 1245 652 2047 908 126 40 334
97 358 98 7 0 12 -12 12 -27z m-4749 -889 c224 -41 516 -133 746 -235 218 -96
518 -268 518 -296 0 -25 16 -23 87 8 461 202 955 192 1426 -31 56 -27 102 -48
103 -47 0 1 2 11 4 21 4 22 -4 15 110 90 196 129 426 236 710 331 263 88 605
165 605 137 0 -30 -66 -186 -114 -271 -68 -120 -191 -300 -241 -352 -21 -22
-54 -48 -74 -58 -68 -35 -336 -129 -466 -164 -208 -57 -186 -59 -231 18 -44
77 -99 143 -109 133 -4 -4 18 -51 48 -105 69 -123 91 -177 110 -278 26 -133
27 -152 37 -390 5 -139 15 -259 24 -304 9 -41 15 -75 13 -77 -2 -2 -24 3 -51
11 -64 19 -127 5 -203 -44 -103 -68 -160 -148 -184 -261 -34 -157 49 -335 173
-372 21 -6 38 -15 38 -19 0 -23 -231 -187 -374 -266 -140 -77 -123 -93 27 -25
86 39 211 121 312 205 l80 66 17 -22 c52 -66 91 -237 108 -468 19 -246 1 -393
-75 -628 -88 -270 -187 -465 -403 -793 -38 -58 -72 -118 -76 -133 -7 -28 -22
-30 -68 -10 -12 5 -21 -1 -32 -24 l-16 -31 -45 22 c-42 20 -45 21 -63 5 -25
-23 -34 -21 -62 8 -29 31 -35 31 -62 0 -28 -33 -35 -32 -52 10 -13 29 -20 35
-46 35 l-31 0 22 38 22 38 -21 85 c-45 176 -56 275 -56 489 0 229 5 272 70
569 42 191 47 228 25 205 -14 -14 -78 -240 -100 -356 -60 -311 -51 -687 23
-932 11 -36 12 -55 5 -69 -10 -18 -19 -19 -162 -13 -372 15 -427 19 -427 27 0
5 13 56 29 113 107 381 107 816 0 1189 -11 37 -24 67 -29 67 -14 0 -14 -1 20
-184 75 -417 64 -763 -35 -1076 -20 -63 -39 -131 -43 -150 -6 -29 -12 -36 -37
-40 -17 -3 -45 -13 -64 -23 l-34 -19 -21 27 -22 27 -42 -21 c-49 -25 -61 -26
-76 -5 -11 14 -17 14 -62 1 -48 -14 -51 -14 -63 5 -9 15 -19 18 -42 13 -31 -7
-38 5 -14 25 8 7 15 16 15 20 0 5 -34 59 -75 120 -371 548 -451 1272 -198
1785 24 50 52 100 61 112 l17 23 74 -68 c40 -37 108 -93 150 -125 85 -64 257
-157 292 -157 32 0 22 8 -116 91 -66 39 -140 88 -165 107 -71 57 -200 173
-200 181 0 4 25 15 55 25 90 28 158 132 172 262 23 215 -183 444 -364 406 -26
-6 -49 -10 -50 -8 -1 1 12 44 28 96 27 83 32 116 39 265 13 263 58 444 143
578 19 29 64 86 100 127 63 71 80 100 57 100 -16 0 -85 -67 -142 -136 -45 -56
-56 -64 -86 -64 -83 0 -362 71 -557 141 -100 36 -131 63 -240 208 -112 148
-202 335 -220 454 -7 45 -6 47 18 47 14 0 62 -7 108 -16z m4539 -404 c0 -5 -5
-10 -11 -10 -5 0 -7 5 -4 10 3 6 8 10 11 10 2 0 4 -4 4 -10z m-991 -645 c42
-77 121 -221 175 -320 54 -99 125 -228 158 -288 32 -59 57 -111 54 -115 -8
-14 -570 -452 -579 -452 -3 0 -1 15 4 32 14 51 11 229 -6 310 -29 134 -36 201
-45 428 -9 216 -21 321 -53 443 l-15 57 26 6 c15 3 59 14 97 24 39 10 78 18
89 17 13 -1 42 -45 95 -142z m-180 -1579 c72 -90 131 -168 131 -173 0 -12 -69
-78 -145 -138 l-60 -48 -8 49 c-23 143 -51 246 -82 312 -19 41 -35 79 -35 85
0 9 58 77 66 77 1 0 61 -74 133 -164z m-2729 -703 c0 -266 62 -549 176 -806
43 -98 158 -300 209 -367 l26 -35 -28 -6 c-36 -8 -212 -10 -239 -3 -19 5 -22
15 -26 76 -3 38 -10 74 -16 80 -22 22 -32 -5 -32 -86 0 -103 -9 -115 -73 -96
-76 23 -141 76 -273 226 -188 214 -330 438 -411 647 -44 115 -41 160 4 64 42
-87 136 -248 167 -284 19 -22 27 -25 37 -16 10 10 2 28 -36 85 -67 100 -165
292 -165 323 0 51 51 22 70 -40 29 -95 190 -375 216 -375 26 0 19 27 -32 107
-52 83 -137 248 -149 291 -10 34 16 28 72 -16 67 -54 143 -138 247 -275 92
-123 101 -133 110 -119 8 13 -48 104 -134 217 l-79 104 15 53 c44 149 168 297
289 345 55 21 55 21 55 -94z m2759 16 c92 -46 183 -136 226 -223 19 -39 41
-97 47 -129 l12 -57 -46 -43 c-57 -52 -151 -165 -173 -207 -29 -56 -4 -47 53
20 128 148 349 350 383 350 38 0 -60 -177 -193 -348 -47 -60 -57 -99 -23 -86
20 8 153 190 206 283 24 40 48 94 54 120 9 34 17 46 31 46 26 0 29 -30 8 -79
-35 -80 -115 -216 -179 -302 -65 -89 -77 -114 -51 -114 30 0 144 158 234 325
46 85 53 94 48 62 -10 -76 -229 -441 -363 -607 -184 -227 -348 -350 -427 -320
-28 10 -34 29 -38 105 -2 37 -7 50 -18 50 -10 0 -18 -16 -24 -50 -4 -27 -10
-56 -12 -62 -6 -22 -384 -13 -384 8 0 5 31 55 68 111 262 392 418 775 458
1121 8 69 14 70 103 26z"/>
<path d="M3064 3810 c-73 -17 -161 -97 -185 -166 -19 -57 -16 -141 9 -196 39
-88 148 -140 247 -118 116 26 180 95 191 207 14 132 -45 237 -149 268 -55 16
-66 17 -113 5z m136 -65 c36 -19 50 -43 50 -87 -1 -40 -17 -64 -55 -78 -33
-13 -72 -6 -97 17 -34 30 -17 125 26 155 17 12 45 9 76 -7z"/>
<path d="M4536 3766 c-85 -32 -139 -114 -140 -216 -2 -154 89 -250 238 -250
52 0 71 5 116 33 73 43 104 103 104 196 -1 100 -50 178 -145 227 -44 22 -126
27 -173 10z m48 -57 c31 -14 60 -72 52 -104 -10 -38 -39 -65 -78 -72 -32 -5
-41 -1 -68 25 -40 41 -40 80 1 127 33 37 52 42 93 24z"/>
<path d="M3774 3369 c-8 -13 29 -49 52 -49 27 0 65 24 62 39 -4 20 -102 29
-114 10z"/>
<path d="M3771 3149 c-62 -44 -138 -75 -208 -85 -39 -5 -58 -2 -89 14 -22 11
-46 28 -53 36 -8 9 -20 16 -27 16 -44 0 27 -80 89 -100 28 -9 38 -18 43 -38
34 -155 70 -264 119 -362 99 -198 204 -236 320 -117 80 82 176 291 200 435 6
38 12 45 49 63 52 24 116 81 116 103 0 24 -23 19 -51 -10 -40 -44 -96 -67
-148 -62 -56 6 -179 62 -244 111 -26 21 -51 37 -55 36 -4 0 -31 -18 -61 -40z
m169 -225 c74 -17 150 -58 150 -80 0 -30 -64 -171 -109 -239 -78 -119 -140
-143 -210 -80 -64 58 -176 300 -151 330 25 30 170 83 230 84 14 0 54 -6 90
-15z"/>
</g>
</svg>
