<?xml version="1.0" standalone="no"?>
<!DOCTYPE svg PUBLIC "-//W3C//DTD SVG 20010904//EN"
 "http://www.w3.org/TR/2001/REC-SVG-20010904/DTD/svg10.dtd">
<svg version="1.0" xmlns="http://www.w3.org/2000/svg"
 width="512.000000pt" height="512.000000pt" viewBox="0 0 512.000000 512.000000"
 preserveAspectRatio="xMidYMid meet">

<g transform="translate(0.000000,512.000000) scale(0.100000,-0.100000)"
fill="#000000" stroke="none">
<path d="M2345 5110 c-492 -41 -986 -239 -1385 -554 -97 -77 -319 -299 -396
-396 -163 -207 -328 -499 -408 -725 -205 -581 -205 -1169 0 -1750 80 -226 245
-518 408 -725 77 -97 299 -319 396 -396 207 -163 499 -328 725 -408 581 -205
1169 -205 1750 0 226 80 518 245 725 408 97 77 319 299 396 396 163 207 328
499 408 725 205 581 205 1169 0 1750 -80 226 -245 518 -408 725 -77 97 -299
319 -396 396 -518 409 -1167 608 -1815 554z m-1402 -2663 c204 -204 843 -337
1617 -337 774 0 1413 133 1617 337 l53 53 377 -2 378 -3 -72 -71 c-59 -59 -91
-81 -185 -127 -297 -147 -752 -254 -1323 -311 -508 -51 -1182 -51 -1690 0
-713 72 -1287 233 -1493 420 -113 102 -138 94 293 94 l375 0 53 -53z m-719
-201 c309 -203 949 -350 1776 -407 226 -16 894 -16 1120 0 842 58 1487 209
1795 419 55 38 60 39 63 21 10 -58 -63 -378 -124 -549 -81 -223 -241 -507
-393 -695 -337 -416 -815 -721 -1322 -844 -569 -137 -1137 -74 -1658 185 -478
237 -868 627 -1105 1104 -110 222 -179 433 -220 675 -20 112 -21 149 -3 138 6
-4 39 -26 71 -47z"/>
</g>
</svg>
