<?xml version="1.0" standalone="no"?>
<!DOCTYPE svg PUBLIC "-//W3C//DTD SVG 20010904//EN"
 "http://www.w3.org/TR/2001/REC-SVG-20010904/DTD/svg10.dtd">
<svg version="1.0" xmlns="http://www.w3.org/2000/svg"
 width="512.000000pt" height="512.000000pt" viewBox="0 0 512.000000 512.000000"
 preserveAspectRatio="xMidYMid meet">

<g transform="translate(0.000000,512.000000) scale(0.100000,-0.100000)"
fill="#000000" stroke="none">
<path d="M2345 5110 c-492 -41 -986 -239 -1385 -554 -97 -77 -319 -299 -396
-396 -163 -207 -328 -499 -408 -725 -205 -581 -205 -1169 0 -1750 80 -226 245
-518 408 -725 77 -97 299 -319 396 -396 207 -163 499 -328 725 -408 581 -205
1169 -205 1750 0 226 80 518 245 725 408 97 77 319 299 396 396 163 207 328
499 408 725 205 581 205 1169 0 1750 -80 226 -245 518 -408 725 -77 97 -299
319 -396 396 -518 409 -1167 608 -1815 554z m340 -1945 c212 -44 390 -202 461
-410 24 -69 28 -95 28 -195 0 -100 -4 -126 -28 -195 -65 -190 -202 -326 -391
-391 -69 -24 -95 -28 -195 -28 -100 0 -126 4 -195 28 -159 55 -283 163 -356
311 -91 185 -90 367 2 554 121 246 404 383 674 326z m-861 -687 c33 -161 61
-236 122 -328 259 -395 828 -442 1151 -96 33 35 76 90 96 123 38 63 97 224 97
266 0 62 -69 57 861 57 l849 0 -5 -72 c-48 -617 -270 -1129 -673 -1549 -824
-860 -2121 -1006 -3109 -350 -351 234 -641 560 -830 936 -148 292 -230 600
-258 963 l-5 72 850 0 850 0 4 -22z"/>
<path d="M2498 2940 c-118 -20 -227 -100 -278 -204 -130 -263 49 -558 340
-558 322 0 499 369 298 623 -83 105 -228 161 -360 139z m172 -142 c164 -71
206 -303 77 -426 -56 -53 -111 -75 -187 -75 -151 0 -263 112 -263 262 0 197
190 319 373 239z"/>
</g>
</svg>
