<?xml version="1.0" standalone="no"?>
<!DOCTYPE svg PUBLIC "-//W3C//DTD SVG 20010904//EN"
 "http://www.w3.org/TR/2001/REC-SVG-20010904/DTD/svg10.dtd">
<svg version="1.0" xmlns="http://www.w3.org/2000/svg"
 width="385.000000pt" height="314.000000pt" viewBox="0 0 385.000000 314.000000"
 preserveAspectRatio="xMidYMid meet">

<g transform="translate(0.000000,314.000000) scale(0.100000,-0.100000)"
fill="#000000" stroke="none">
<path d="M120 3012 c0 -25 180 -358 323 -597 149 -249 223 -348 346 -465 129
-121 127 -108 55 -244 -24 -46 -44 -92 -44 -103 0 -10 -13 -57 -29 -103 -67
-194 -121 -453 -121 -581 0 -100 35 -207 132 -398 48 -97 88 -187 88 -201 0
-14 -12 -65 -25 -115 -21 -79 -25 -108 -11 -94 10 10 56 183 56 211 0 18 -32
91 -79 181 -123 236 -135 276 -135 432 0 107 5 151 28 250 35 150 109 378 172
526 40 97 57 123 106 172 32 32 58 60 58 63 0 14 -27 -2 -69 -41 -26 -25 -52
-45 -58 -45 -11 0 -193 186 -249 255 -187 231 -285 464 -283 675 2 161 -14
157 189 52 271 -139 486 -273 645 -402 70 -58 167 -155 197 -198 l16 -23 138
15 c353 38 703 45 829 17 l51 -12 154 77 c383 189 752 344 959 402 l74 21 -6
-92 c-12 -177 -78 -371 -178 -518 -80 -119 -218 -249 -348 -328 l-54 -33 -46
46 c-38 38 -71 58 -71 43 0 -2 24 -28 54 -58 57 -59 112 -150 145 -239 30 -80
125 -423 182 -660 55 -224 101 -476 120 -668 8 -67 17 -122 21 -122 11 0 10
78 -2 137 -5 26 -14 89 -20 138 -27 227 -77 458 -167 780 -25 88 -55 201 -68
250 -27 106 -54 175 -102 268 -20 37 -34 69 -32 71 2 1 22 13 44 26 114 68
283 219 332 298 9 15 38 54 63 87 25 33 88 122 139 198 51 75 97 137 102 137
5 0 9 64 9 141 l0 142 -39 -7 c-124 -20 -459 -138 -711 -251 -166 -75 -254
-115 -273 -126 -10 -6 -78 -37 -150 -71 l-132 -60 -129 12 c-178 17 -577 1
-788 -31 l-77 -12 -98 100 c-120 123 -253 223 -498 373 -119 73 -486 255 -570
283 -77 26 -165 36 -165 19z"/>
<path d="M1259 1627 c-44 -29 -69 -80 -69 -140 0 -162 183 -217 255 -76 20 38
19 116 -3 159 -21 43 -75 80 -117 80 -18 0 -47 -10 -66 -23z m75 -43 c21 -20
20 -63 -1 -86 -35 -39 -103 -11 -103 43 0 36 24 59 60 59 16 0 36 -7 44 -16z"/>
<path d="M2420 1632 c-67 -33 -99 -143 -64 -217 25 -53 58 -77 111 -82 60 -5
102 19 128 73 39 81 16 174 -55 221 -40 28 -73 29 -120 5z m70 -51 c25 -47 -1
-101 -48 -101 -54 0 -81 62 -45 102 22 25 79 24 93 -1z"/>
<path d="M1733 1258 c-35 -17 -29 -47 12 -64 65 -27 155 -11 155 28 0 38 -113
62 -167 36z"/>
<path d="M840 1154 c-166 -72 -139 -273 42 -313 181 -41 320 142 205 268 -52
56 -171 78 -247 45z"/>
<path d="M2703 1146 c-105 -49 -141 -167 -78 -257 43 -61 102 -89 184 -89 135
1 222 74 223 186 0 144 -178 230 -329 160z"/>
<path d="M1797 970 c-55 -14 -91 -35 -122 -72 -24 -28 -27 -38 -23 -89 6 -80
46 -142 118 -183 52 -29 61 -31 157 -31 87 0 105 3 129 21 57 42 69 69 69 152
0 97 -27 162 -77 188 -38 21 -190 29 -251 14z m198 -31 c56 -14 71 -31 90
-106 26 -102 -2 -180 -73 -201 -123 -37 -269 15 -313 112 -46 101 -8 166 111
192 71 16 130 17 185 3z"/>
</g>
</svg>
